<svg width="24" height="24" viewBox="0 0 24 24" fill="none" xmlns="http://www.w3.org/2000/svg">
  <path d="M10.59 13.41c.41.39.41 1.03 0 1.42-.39.39-1.03.39-1.42 0a5.003 5.003 0 010-7.07l3.54-3.54a5.003 5.003 0 017.07 0 5.003 5.003 0 010 7.07l-1.49 1.49" stroke="currentColor" stroke-width="1.5" stroke-linecap="round"/>
  <path d="M13.41 10.59c-.41-.39-.41-1.03 0-1.42.39-.39 1.03-.39 1.42 0a5.003 5.003 0 010 7.07l-3.54 3.54a5.003 5.003 0 01-7.07 0 5.003 5.003 0 010-7.07l1.49-1.49" stroke="currentColor" stroke-width="1.5" stroke-linecap="round"/>
</svg>
