<svg width="24" height="24" viewBox="0 0 24 24" fill="none" xmlns="http://www.w3.org/2000/svg">
<path d="M7.26541 9.37812L13.0705 11.4714C13.6575 11.7001 14.1668 12.4425 13.6963 13.2496C13.3856 13.8582 11.0678 16.3831 11.0678 16.3831C11.0549 16.4305 3.57951 13.6553 3.57951 13.6553C2.97095 13.4222 2.61703 12.7878 2.81557 12.0497C3.01411 11.3117 6.56189 9.09758 7.26541 9.3738V9.37812Z" fill="#00101A"/>
<path d="M7.2706 9.37421L13.0757 11.4675C13.6627 11.6962 14.1719 12.4386 13.7015 13.2457C13.3907 13.8543 11.073 16.3791 11.073 16.3791C11.0601 16.4266 3.5847 13.6514 3.5847 13.6514C2.97614 13.4183 2.62222 12.7839 2.82076 12.0458C3.0193 11.3078 6.56708 9.09367 7.2706 9.3699V9.37421Z" fill="url(#paint0_linear_7547_491)" style="mix-blend-mode:multiply"/>
<path d="M7.26544 9.37421L13.0705 11.4675C13.6575 11.6962 14.1668 12.4386 13.6963 13.2457C13.3856 13.8543 11.0679 16.3791 11.0679 16.3791C11.0549 16.4266 3.57954 13.6514 3.57954 13.6514C2.97098 13.4183 2.61706 12.7839 2.8156 12.0458C3.01414 11.3078 6.56193 9.09367 7.26544 9.3699V9.37421Z" fill="url(#paint1_linear_7547_491)" style="mix-blend-mode:multiply"/>
<path d="M14.6934 9.05447C14.9049 8.86025 17.9995 5.99872 21.9789 2.55452C22.0307 2.50704 21.9789 2.42503 21.9142 2.45525C20.0798 3.39183 16.3939 4.25504 16.3939 4.25504L8.83224 5.66206C6.25557 6.18862 6.01818 6.62023 4.97802 8.29485L4.70179 8.73077C4.68884 8.75235 4.24861 9.5465 2.83295 12.0023C3.26455 11.2557 3.75226 11.1952 6.65264 10.6514C7.20509 10.5349 8.52149 10.2328 9.34585 10.0644C10.4896 9.83136 14.387 9.1149 14.6632 9.0631C14.6762 9.0631 14.6805 9.05879 14.6891 9.05016L14.6934 9.05447Z" fill="#E73928"/>
<path d="M4.9608 15.4033L2 20.725L7.81371 19.3525C10.3861 18.813 10.6234 18.3814 11.6593 16.7024L11.9355 16.2622C11.9355 16.2622 12.2679 15.7529 13.6965 13.2539C13.2908 13.9963 11.6981 13.9833 9.98036 14.3545C9.4279 14.4753 4.96512 15.4033 4.96512 15.4033H4.9608Z" fill="#E73928"/>
<defs>
<linearGradient id="paint0_linear_7547_491" x1="10.1149" y1="16.8755" x2="7.36987" y2="10.2547" gradientUnits="userSpaceOnUse">
<stop stop-color="white"/>
<stop offset="0.32" stop-color="#FDFCFD"/>
<stop offset="0.47" stop-color="#F9F5F6"/>
<stop offset="0.57" stop-color="#F2E9EA"/>
<stop offset="0.66" stop-color="#E8D7DA"/>
<stop offset="0.74" stop-color="#DABFC4"/>
<stop offset="0.81" stop-color="#CAA3AA"/>
<stop offset="0.87" stop-color="#B6818B"/>
<stop offset="0.93" stop-color="#A05966"/>
<stop offset="0.98" stop-color="#872D3E"/>
<stop offset="1" stop-color="#7E1E30"/>
</linearGradient>
<linearGradient id="paint1_linear_7547_491" x1="8.73721" y1="13.3277" x2="10.8219" y2="17.1345" gradientUnits="userSpaceOnUse">
<stop stop-color="white"/>
<stop offset="0.22" stop-color="#FCFCFC"/>
<stop offset="0.35" stop-color="#F3F3F3"/>
<stop offset="0.47" stop-color="#E5E5E5"/>
<stop offset="0.57" stop-color="#D0D0D0"/>
<stop offset="0.66" stop-color="#B5B5B5"/>
<stop offset="0.75" stop-color="#959595"/>
<stop offset="0.83" stop-color="#6D6D6D"/>
<stop offset="0.91" stop-color="#404040"/>
<stop offset="0.98" stop-color="#0E0E0E"/>
<stop offset="1"/>
</linearGradient>
</defs>
</svg>
