<svg width="13" height="13" viewBox="0 0 13 13" fill="none" xmlns="http://www.w3.org/2000/svg">
<path d="M5.22167 7.10167C5.495 7.36167 5.495 7.78833 5.22167 8.04833C4.96167 8.30833 4.535 8.30833 4.275 8.04833C2.975 6.74833 2.975 4.635 4.275 3.335L6.635 0.975C7.935 -0.325 10.0483 -0.325 11.3483 0.975C12.6483 2.275 12.6483 4.38833 11.3483 5.68833L10.355 6.68167C10.3617 6.135 10.275 5.58833 10.0883 5.06833L10.4017 4.74833C11.1883 3.96833 11.1883 2.70167 10.4017 1.92167C9.62167 1.135 8.355 1.135 7.575 1.92167L5.22167 4.275C4.435 5.055 4.435 6.32167 5.22167 7.10167ZM7.10167 4.275C7.36167 4.015 7.78833 4.015 8.04833 4.275C9.34833 5.575 9.34833 7.68833 8.04833 8.98833L5.68833 11.3483C4.38833 12.6483 2.275 12.6483 0.975 11.3483C-0.325 10.0483 -0.325 7.935 0.975 6.635L1.96833 5.64167C1.96167 6.18833 2.04833 6.735 2.235 7.26167L1.92167 7.575C1.135 8.355 1.135 9.62167 1.92167 10.4017C2.70167 11.1883 3.96833 11.1883 4.74833 10.4017L7.10167 8.04833C7.88833 7.26833 7.88833 6.00167 7.10167 5.22167C6.82833 4.96167 6.82833 4.535 7.10167 4.275Z" fill="#00101A"/>
</svg>
